<?xml version="1.0" encoding="UTF-8" standalone="no"?>
<!-- Created with Inkscape (http://www.inkscape.org/) -->

<svg
   viewBox="0 0 24.908091 33.968384"
   version="1.1"
   id="svg5"
   sodipodi:docname="medium.svg"
   inkscape:version="1.1.1 (3bf5ae0d25, 2021-09-20)"
   xmlns:inkscape="http://www.inkscape.org/namespaces/inkscape"
   xmlns:sodipodi="http://sodipodi.sourceforge.net/DTD/sodipodi-0.dtd"
   xmlns="http://www.w3.org/2000/svg"
   xmlns:svg="http://www.w3.org/2000/svg">
  <sodipodi:namedview
     id="namedview7"
     pagecolor="#ffffff"
     bordercolor="#111111"
     borderopacity="1"
     inkscape:pageshadow="0"
     inkscape:pageopacity="0"
     inkscape:pagecheckerboard="1"
     inkscape:document-units="mm"
     showgrid="false"
     inkscape:snap-bbox="true"
     inkscape:snap-bbox-midpoints="true"
     inkscape:zoom="0.74118967"
     inkscape:cx="-514.03846"
     inkscape:cy="308.28816"
     inkscape:window-width="1920"
     inkscape:window-height="1017"
     inkscape:window-x="-8"
     inkscape:window-y="381"
     inkscape:window-maximized="1"
     inkscape:current-layer="layer1"
     fit-margin-top="0"
     fit-margin-left="0"
     fit-margin-right="0"
     fit-margin-bottom="0" />
  <defs
     id="defs2" />
  <g
     inkscape:label="Layer 1"
     inkscape:groupmode="layer"
     id="layer1"
     transform="translate(-112.62929,-23.301001)">
    <path
       style="fill:currentColor;stroke-width:0.264583"
       d="m 123.09904,56.302757 c -4.4952,-2.341996 -8.35233,-5.608962 -9.6573,-8.179685 l -0.66145,-1.303039 -0.0755,-9.555016 -0.0755,-9.555015 1.0015,-0.16551 c 0.55082,-0.09103 1.548,-0.16682 2.21594,-0.168421 1.53432,-0.0037 4.87296,-0.849054 6.37092,-1.613174 0.63024,-0.321491 1.53285,-1.006937 2.00579,-1.523213 l 0.8599,-0.938683 0.85989,0.938683 c 0.47294,0.516276 1.37555,1.201722 2.00579,1.523213 1.49795,0.76412 4.83659,1.609495 6.37091,1.613174 0.66794,0.0016 1.66512,0.07739 2.21595,0.168421 l 1.0015,0.16551 -0.0755,9.555015 -0.0755,9.555016 -0.66146,1.303039 c -1.30959,2.579824 -5.20663,5.876011 -9.67449,8.182855 -1.0281,0.530831 -1.92107,0.964385 -1.98437,0.963456 -0.0633,-9.28e-4 -0.94853,-0.435911 -1.96718,-0.966626 z m 4.76502,-4.124912 c 2.94231,-1.740503 5.44383,-4.040737 6.33147,-5.821992 l 0.67747,-1.359511 v -7.356383 -7.356384 l -1.12448,-0.002 c -3.17384,-0.0056 -6.29487,-0.983194 -7.80521,-2.444707 l -0.85989,-0.8321 -0.8599,0.8321 c -1.51034,1.461513 -4.63137,2.439065 -7.80521,2.444707 l -1.12448,0.002 v 7.356384 7.356383 l 0.67747,1.359511 c 0.38543,0.773465 1.38999,2.021942 2.33037,2.89622 1.68907,1.570338 6.00267,4.314835 6.78175,4.314835 0.23784,0 1.48913,-0.625079 2.78064,-1.389063 z M 125.08342,40.820788 V 30.191334 l 0.5986,0.562364 c 1.05684,0.992841 3.05237,1.692936 5.25604,1.843979 l 2.08286,0.142762 v 5.923816 c 0,6.843332 -0.0487,7.048752 -2.17201,9.170825 -1.2901,1.289321 -4.81629,3.615161 -5.48093,3.615161 -0.19831,0 -0.28456,-3.221918 -0.28456,-10.629453 z"
       id="path854" />
    <g
       id="g1937"
       transform="translate(0,-38.49355)">
      <g
         id="g2506" />
    </g>
  </g>
</svg>
